<svg width="13" height="15" viewBox="0 0 13 15" fill="none" xmlns="http://www.w3.org/2000/svg">
<g clip-path="url(#clip0_1_126)">
<path d="M13.5273 7.375C12.344 8.125 11.219 9.05833 10.1523 10.175C9.0857 11.275 8.22734 12.3417 7.57734 13.375L6.55234 12.65C7.03568 11.8667 7.63568 11.075 8.35234 10.275C9.0523 9.475 9.8357 8.73333 10.7023 8.05H-0.847656L-0.847656 6.7L10.7023 6.7C9.8357 6.01667 9.0523 5.275 8.35234 4.475C7.63568 3.675 7.03568 2.8833 6.55234 2.1L7.57734 1.375C8.22734 2.4083 9.0857 3.4833 10.1523 4.6C11.219 5.7 12.344 6.625 13.5273 7.375Z" fill="#1F1E1E"/>
</g>
<defs>
<clipPath id="clip0_1_126">
<rect width="13" height="15" fill="white"/>
</clipPath>
</defs>
</svg>
